<?xml version="1.0" encoding="UTF-8"?>
<svg id="Layer_2" data-name="Layer 2" xmlns="http://www.w3.org/2000/svg" viewBox="0 0 287.9 160.52">
  <defs>
    <style>
      .cls-1 {
        fill: #010101;
        stroke-width: 0px;
      }
    </style>
  </defs>
  <g id="Layer_1-2" data-name="Layer 1">
    <path class="cls-1" d="M0,125.28c0-37.86-.01-75.56.03-113.26,0-1.74.25-3.56.82-5.19C2.41,2.38,6.01.07,10.99.07c25.24,0,50.49-.01,75.73-.01,62.94,0,125.88.05,188.82-.06,8.01-.01,12.31,4.98,12.32,12.19,0,11.96.04,23.91.04,35.87,0,32.72,0,65.43-.05,98.15,0,2.09-.07,4.24-.56,6.25-1.21,5-5.14,7.95-10.28,7.95-88.35.02-176.7,0-265.05.11-7.1,0-12.06-5.47-11.96-11.99.12-7.69.01-15.39,0-23.25M150.23,140.51c6.08-1.61,11.77-4.12,16.98-7.61,14.28-9.53,22.82-22.95,26.38-39.62.62-2.89.82-5.92.81-8.88,0-2.42-1.86-4.03-3.98-4.11-2.18-.09-3.9,1.3-4.46,3.65-.13.53-.17,1.09-.27,1.63-.77,4.11-1.04,8.4-2.41,12.3-7.31,20.8-21.78,33.34-43.88,35.89-15.26,1.76-28.82-2.98-40.39-13.13-2.24-1.97-4.31-4.14-6.46-6.21-1.11-1.07-2.39-1.81-4-1.61-1.73.21-2.99,1.08-3.61,2.76-.67,1.83-.43,3.62.95,4.93,3.54,3.4,6.95,7.04,10.89,9.9,16.09,11.68,33.93,14.82,53.47,10.09M156.16,112.01c-1.05.27-2.1.54-3.15.82-.1.03-.19.11-.28.17-12.53,7.68-25.55,7.86-38.65,1.96-14.51-6.53-22.42-18.21-24.42-33.82-.53-4.12.02-8.38.15-12.57.08-2.42-1.11-4.32-3.2-4.76-2.4-.51-4.38.42-5.08,2.82-.57,1.94-.81,4-.92,6.03-.95,17.8,5.08,32.69,18.96,44.05,9.23,7.56,20.07,10.86,31.95,11.11,9.39.2,18-2.24,25.95-7.16,1.71-1.06,3.02-2.42,2.77-4.53-.26-2.18-1.65-3.55-4.08-4.11M169.04,53.38c-2.71-3.78-6.15-6.81-9.94-9.43-1.71-1.19-3.57-2.22-5.48-3.04-2.34-1-4.64-.1-5.7,1.91-1.17,2.22-.53,4.63,1.65,6.09.92.61,1.9,1.13,2.85,1.7,4.78,2.86,8.84,6.49,11.58,11.38,7.24,12.95,6.07,25.73-.97,38.35-.56,1.01-1.21,2-1.59,3.07-.8,2.25-.1,4.19,1.77,5.3,1.65.99,3.69.69,5.25-.99.96-1.04,1.79-2.25,2.47-3.5,9.43-17.22,9.44-34.12-1.89-50.83M149.11,29.02c.43,2.49,2.35,3.39,4.39,4.26,12.32,5.27,22.07,13.37,27.91,25.68,1.27,2.69,2.23,5.52,3.47,8.23,1.07,2.33,2.89,3.05,5.18,2.28,1.95-.65,3.13-2.7,2.75-4.91-.15-.87-.42-1.72-.68-2.56-3.47-11.26-10.2-20.28-19.29-27.57-5.36-4.3-11.22-7.86-17.87-9.87-3.11-.94-5.59.91-5.86,4.46M109.79,95.92c-.68.54-1.51.97-2.03,1.64-1.75,2.29-1.1,4.64,1.81,6.92,12.64,9.9,30.9,10.75,44.47,2.03.87-.56,1.69-1.28,2.33-2.09,1.38-1.72,1.27-4.21-.11-5.82-1.42-1.65-3.48-2.03-5.56-.92-.97.52-1.88,1.16-2.8,1.77-5.83,3.82-12.21,4.98-19.03,3.96-5.14-.77-9.69-2.92-13.84-5.99-1.48-1.09-3-2.13-5.25-1.51M97.4,85.69c1.33,2.63,3.23,3.66,5.57,3.02,2.1-.57,3.26-2.67,2.99-5.44-.03-.33-.05-.66-.1-.99-.66-4.56-.31-9.06,1.03-13.45,2.38-7.76,7.33-13.48,14.22-17.65,1.14-.69,2.26-1.64,2.96-2.74.92-1.43.34-3.61-.86-4.72-1.52-1.41-3.81-1.66-5.86-.49-16.23,9.21-22.86,26.02-19.97,42.47M92.11,56.47c.18-.28.37-.55.53-.84,4.95-9.09,12.08-15.95,21.22-20.75,1.66-.87,3.38-1.6,5.05-2.44,2.18-1.1,3-3.22,2.17-5.43-.78-2.09-2.8-3.09-5.12-2.5-.74.19-1.48.44-2.19.75-6.52,2.87-12.42,6.7-17.67,11.53-4.73,4.35-8.54,9.4-11.32,15.18-1.18,2.46-.5,4.57,1.45,5.84,1.9,1.23,3.78.85,5.86-1.35M126.75,25.33c.29,1.22.7,2.43.83,3.66.14,1.37,0,2.76.02,4.14.05,4.35,2.9,7.38,7.14,7.57,3.88.18,7.11-2.74,7.47-6.88.15-1.76.14-3.54.11-5.3-.04-2.72,1.14-4.77,3.26-6.36.38-.29.75-.58,1.31-1.01-8.17-2.89-16.1-2.62-24.03-.25,1.34,1.52,2.54,2.87,3.88,4.43M159.27,74.28c2.87-1.35,3.97-3.8,2.72-6.67-2.02-4.6-5.22-8.33-9.27-11.26-2.18-1.58-4.71-1.27-6.14.48-1.62,1.98-1.4,4.31.43,6.43,2.59,3,5.09,6.08,7.6,9.15,1.16,1.41,2.5,2.34,4.66,1.87M130.89,56.6c1.81,2.1,3.87,2.8,5.99,2.04,2.82-1.01,4.23-4.1,3.14-6.88-1.1-2.79-4.3-4.12-6.98-2.91-2.92,1.32-3.87,4.45-2.14,7.75Z"/>
  </g>
</svg>