<?xml version="1.0" encoding="UTF-8"?>
<svg id="Layer_2" data-name="Layer 2" xmlns="http://www.w3.org/2000/svg" viewBox="0 0 113.88 123.58">
  <defs>
    <style>
      .cls-1 {
        fill: #fff;
        stroke-width: 0px;
      }
    </style>
  </defs>
  <g id="Layer_1-2" data-name="Layer 1">
    <g>
      <path class="cls-1" d="M69.57,121.48c-19.4,4.7-37.24,1.56-53.33-10.12-3.95-2.87-7.35-6.51-10.89-9.9-1.37-1.31-1.61-3.1-.95-4.93.61-1.68,1.88-2.55,3.61-2.76,1.61-.2,2.89.54,4,1.61,2.16,2.07,4.22,4.24,6.46,6.21,11.58,10.15,25.13,14.89,40.39,13.13,22.1-2.55,36.57-15.09,43.88-35.89,1.37-3.9,1.64-8.19,2.41-12.3.1-.54.14-1.1.27-1.63.57-2.34,2.28-3.73,4.46-3.65,2.12.08,3.97,1.69,3.98,4.11.01,2.96-.19,5.99-.81,8.88-3.56,16.66-12.1,30.08-26.38,39.62-5.22,3.48-10.91,6-17.12,7.63Z"/>
      <path class="cls-1" d="M75.77,92.97c2.29.55,3.69,1.92,3.95,4.1.25,2.11-1.06,3.47-2.77,4.53-7.95,4.92-16.56,7.36-25.95,7.16-11.88-.25-22.71-3.55-31.95-11.11C5.18,86.28-.85,71.4.1,53.6c.11-2.02.35-4.09.92-6.03.7-2.39,2.68-3.33,5.08-2.82,2.09.45,3.28,2.34,3.2,4.76-.14,4.19-.68,8.45-.15,12.57,2,15.61,9.91,27.29,24.42,33.82,13.1,5.9,26.12,5.71,38.65-1.96.09-.06.18-.14.28-.17,1.05-.28,2.1-.55,3.29-.8Z"/>
      <path class="cls-1" d="M88.59,34.42c11.26,16.61,11.26,33.51,1.82,50.73-.68,1.25-1.51,2.46-2.47,3.5-1.56,1.68-3.61,1.98-5.25.99-1.87-1.12-2.57-3.05-1.77-5.3.38-1.08,1.03-2.06,1.59-3.07,7.04-12.62,8.21-25.4.97-38.35-2.74-4.9-6.8-8.52-11.58-11.38-.95-.57-1.93-1.08-2.85-1.7-2.18-1.46-2.82-3.87-1.65-6.09,1.05-2.01,3.36-2.9,5.7-1.91,1.91.82,3.77,1.86,5.48,3.04,3.79,2.62,7.23,5.65,10.01,9.53Z"/>
      <path class="cls-1" d="M68.59,9.83c.28-3.41,2.75-5.27,5.86-4.33,6.65,2.01,12.51,5.57,17.87,9.87,9.09,7.29,15.82,16.31,19.29,27.57.26.84.53,1.69.68,2.56.38,2.21-.79,4.26-2.75,4.91-2.28.76-4.1.05-5.18-2.28-1.24-2.7-2.2-5.54-3.47-8.23-5.84-12.3-15.59-20.41-27.91-25.68-2.05-.88-3.96-1.78-4.4-4.4Z"/>
      <path class="cls-1" d="M29.38,76.8c2.12-.55,3.65.48,5.13,1.57,4.15,3.07,8.7,5.22,13.84,5.99,6.83,1.02,13.21-.14,19.03-3.96.92-.61,1.83-1.25,2.8-1.77,2.07-1.11,4.14-.74,5.56.92,1.38,1.61,1.49,4.1.11,5.82-.65.8-1.46,1.53-2.33,2.09-13.56,8.72-31.83,7.88-44.47-2.03-2.91-2.28-3.57-4.63-1.81-6.92.51-.67,1.34-1.1,2.14-1.71Z"/>
      <path class="cls-1" d="M16.84,66.51c-2.86-16.33,3.77-33.14,20.01-42.34,2.05-1.16,4.34-.92,5.86.49,1.2,1.12,1.78,3.29.86,4.72-.7,1.1-1.83,2.05-2.96,2.74-6.89,4.17-11.83,9.89-14.22,17.65-1.35,4.39-1.7,8.89-1.03,13.45.05.33.07.66.1.99.27,2.77-.9,4.87-2.99,5.44-2.34.63-4.24-.4-5.61-3.15Z"/>
      <path class="cls-1" d="M11.52,37.51c-2.01,2.11-3.89,2.49-5.79,1.25-1.95-1.27-2.63-3.38-1.45-5.84,2.78-5.78,6.6-10.83,11.32-15.18,5.25-4.83,11.14-8.66,17.67-11.53.7-.31,1.44-.56,2.19-.75,2.31-.59,4.33.41,5.12,2.5.83,2.21,0,4.33-2.17,5.43-1.67.84-3.4,1.57-5.05,2.44-9.14,4.8-16.27,11.66-21.22,20.75-.16.29-.35.56-.6.94Z"/>
      <path class="cls-1" d="M46.16,6.17c-1.27-1.46-2.46-2.81-3.81-4.33,7.93-2.37,15.86-2.64,24.03.25-.55.43-.92.73-1.31,1.01-2.12,1.59-3.3,3.64-3.26,6.36.03,1.77.04,3.55-.11,5.3-.36,4.14-3.59,7.06-7.47,6.88-4.24-.2-7.1-3.22-7.14-7.57-.01-1.38.12-2.78-.02-4.14-.13-1.24-.54-2.44-.9-3.77Z"/>
      <path class="cls-1" d="M78.64,55.28c-2.05.4-3.39-.53-4.54-1.94-2.51-3.07-5.01-6.14-7.6-9.15-1.83-2.12-2.05-4.45-.43-6.43,1.43-1.74,3.96-2.06,6.14-.48,4.05,2.94,7.25,6.66,9.27,11.26,1.26,2.87.15,5.31-2.83,6.73Z"/>
      <path class="cls-1" d="M50.31,37.43c-1.66-3.19-.72-6.32,2.21-7.64,2.68-1.21,5.88.12,6.98,2.91,1.09,2.77-.32,5.87-3.14,6.88-2.13.76-4.18.06-6.05-2.14Z"/>
    </g>
  </g>
</svg>