<?xml version="1.0" encoding="UTF-8"?>
<svg id="Layer_2" data-name="Layer 2" xmlns="http://www.w3.org/2000/svg" viewBox="0 0 287.9 208.12">
  <defs>
    <style>
      .cls-1 {
        fill: #0a0a0a;
      }

      .cls-1, .cls-2, .cls-3, .cls-4, .cls-5, .cls-6, .cls-7 {
        stroke-width: 0px;
      }

      .cls-2 {
        fill: #070707;
      }

      .cls-3 {
        fill: #080808;
      }

      .cls-4 {
        fill: #040404;
      }

      .cls-5 {
        fill: #010101;
      }

      .cls-6 {
        fill: #060606;
      }

      .cls-7 {
        fill: #020202;
      }
    </style>
  </defs>
  <g id="Layer_1-2" data-name="Layer 1">
    <path class="cls-4" d="M94.7,198.36c-3.5-2.31-4.72-5.57-3.91-9.41.71-3.4,2.75-5.9,6.34-6.7,2.48-.55,4.68.11,6.73,2.04.05-.69.09-1.14.13-1.73h5.01c0,.71,0,1.51,0,2.31,0,3.98-.12,7.97,0,11.95.2,6.82-4.88,11.13-12.29,9.72-2.04-.39-3.93-1.55-6.07-2.44,1.09-1.52,1.92-2.67,2.83-3.95,2.58,1.73,5.23,2.74,8.1,1.12,1.25-.7,1.97-1.88,2.08-3.61-2.89,2.19-5.81,2.36-8.95.68M95.99,191.71c.75,2.1,2,3.09,3.8,3.03,1.63-.06,3.11-1.19,3.51-2.77.43-1.66-.06-3.07-1.35-4.15-1.16-.97-2.49-1.1-3.86-.46-1.74.81-2.3,2.26-2.1,4.35Z"/>
    <path class="cls-6" d="M225.89,183.81c.06-.17.16-.35.16-.52,0-.2-.1-.39-.24-.84,2.01,0,3.88-.06,5.74.05.35.02.77.65.96,1.09,1.39,3.24,2.73,6.5,4.18,9.97,1.42-3.38,2.8-6.54,4.06-9.75.38-.97.85-1.41,1.92-1.35,1.43.08,2.87.02,4.43.02-.09.33-.13.64-.26.91-3.35,7.2-6.67,14.41-10.1,21.58-.34.72-1.22,1.38-1.99,1.66-1.7.61-3.5.96-5.61,1.5,1.41-2.83,2.74-5.32,3.88-7.89.3-.68.31-1.71.02-2.4-1.58-3.7-3.27-7.36-5-11-.54-1.13-1.31-2.15-2.08-3.13-.1.1-.08.11-.08.11Z"/>
    <path class="cls-4" d="M191.56,186.01c3.93-5.54,13.21-5.48,16.46,1.61,1.58,3.44,1.06,6.59-1.27,9.42-2.52,3.07-5.89,4.04-9.68,3.17-3.59-.83-5.82-3.23-6.76-6.78-.69-2.6-.18-5.03,1.25-7.41M196.52,194.32c.42.26.81.58,1.27.76,1.57.61,3.06.37,4.31-.75,1.07-.96,1.73-2.16,1.36-3.67-.46-1.87-1.6-3.13-3.5-3.55-1.61-.36-3.21.46-4.18,2.02-.97,1.55-.79,3.19.75,5.2Z"/>
    <path class="cls-6" d="M149.41,189.88c.01,1.08.01,2.01.01,3.05h-12.32c.67,3.17,4.67,3.79,7.63,1.24,1.18.96,2.38,1.92,3.57,2.89-3.43,4.04-9.31,4.63-13.27,1.41-3.84-3.12-4.45-9.22-1.31-13.14,2.32-2.89,5.41-3.75,8.91-3.07,3.5.67,5.53,3.01,6.51,6.35.11.37.17.75.27,1.28M137.78,189.71h6.39c-.48-1.98-1.64-2.98-3.33-3.01-1.55-.03-3.34,1.15-3.73,2.5-.04.12.24.34.67.51Z"/>
    <path class="cls-2" d="M166.11,200.3c-1.17.16-1.5-.24-1.47-1.27.07-2.71.06-5.42.04-8.14-.02-2.35-1.2-3.78-3.05-3.78-1.93,0-3.52,1.67-3.55,3.84-.04,3.03-.01,6.07-.01,9.2h-5.15v-17.6h4.68c.06.54.12,1.09.2,1.75,2.36-2.54,5.18-2.78,8.1-1.7,2.9,1.08,3.95,3.6,4.03,6.48.1,3.69.03,7.38.03,11.21h-3.85Z"/>
    <path class="cls-6" d="M85.96,200.27c-1.14,0-2.12,0-3.27,0,0-3.24.02-6.32,0-9.4-.01-1.53-.48-2.86-2.07-3.43-2.16-.76-4.18.6-4.28,2.98-.11,2.71-.04,5.42-.06,8.13,0,.54-.05,1.07-.07,1.68h-5.12v-17.67h4.82c.05.5.1.97.17,1.66,1.92-2.02,4.18-2.49,6.62-1.99,3.02.62,5.07,3.3,5.22,7.02.15,3.58.03,7.18.03,11.02-.65,0-1.24,0-1.98,0Z"/>
    <path class="cls-6" d="M181.92,200.48c-3.52-.64-5.55-3.05-5.58-6.48-.02-2.21-.03-4.42-.05-6.63,0-.04-.07-.08-.23-.28h-3.5v-4.54h3.79v-4.3c1.79-.2,3.42-.38,5.24-.58v4.76h5.32v4.56h-5.42c0,1.92-.08,3.68.02,5.42.15,2.72,2.01,3.73,4.49,2.53.3-.14.57-.33.9-.53.29,1.63.58,3.23.9,4.98-1.73,1.01-3.65,1.46-5.89,1.08Z"/>
    <path class="cls-6" d="M128.8,188.69c-1.38,3.44-2.76,6.75-4.04,10.09-.4,1.05-.87,1.54-2.12,1.52-4.1-.07-4.07-.02-5.76-3.81-1.91-4.28-3.88-8.53-5.83-12.8-.16-.34-.29-.69-.51-1.22,1.87,0,3.57-.07,5.25.05.43.03,1,.57,1.19,1.01,1.24,2.95,2.38,5.94,3.56,8.91.19.49.41.96.73,1.72,1.36-3.57,2.7-6.81,3.82-10.13.44-1.31,1.08-1.71,2.38-1.59,1.26.11,2.54.02,4.02.02-.92,2.11-1.78,4.11-2.69,6.23Z"/>
    <path class="cls-1" d="M225.86,183.78c-.32.61-.54,1.31-.96,1.85-.63.83-1.4,1.56-2.1,2.33-3.05-1.27-5.32.25-5.35,3.61-.03,2.86,0,5.71,0,8.64h-5.3v-17.66h4.89c.06.44.12.91.2,1.49,2.77-2.25,5.57-3.06,8.54-.21.12-.02.1-.03.09-.04Z"/>
    <path class="cls-3" d="M56.66,182.16c1.06.77,2.01,1.49,2.93,2.19-1.15,1.38-2.14,2.56-3.13,3.74-2.94-1.53-5.5.01-5.56,3.42-.04,2.87,0,5.74,0,8.71h-5.18v-17.71h5.09c.03.5.05.99.1,1.75,1.66-1.59,3.39-2.64,5.76-2.1Z"/>
    <path class="cls-7" d="M61.65,188.08c0-1.92,0-3.68,0-5.55h5.04v17.67h-5.03c0-3.96,0-7.95,0-12.11Z"/>
    <path class="cls-3" d="M61.17,179.28c-.56-2.01.18-3.55,1.91-4.2,1.43-.54,3.14.2,3.84,1.66.66,1.39.17,3.07-1.16,3.89-1.53.96-3.21.5-4.6-1.35Z"/>
    <path class="cls-5" d="M0,125.28c0-37.86-.01-75.56.03-113.26,0-1.74.25-3.56.82-5.19C2.41,2.38,6.01.07,10.99.07c25.24,0,50.49-.01,75.73-.01,62.94,0,125.88.05,188.82-.06,8.01-.01,12.31,4.98,12.32,12.19,0,11.96.04,23.91.04,35.87,0,32.72,0,65.43-.05,98.15,0,2.09-.07,4.24-.56,6.25-1.21,5-5.14,7.95-10.28,7.95-88.35.02-176.7,0-265.05.11-7.1,0-12.06-5.47-11.96-11.99.12-7.69.01-15.39,0-23.25M150.23,140.51c6.08-1.61,11.77-4.12,16.98-7.61,14.28-9.53,22.82-22.95,26.38-39.62.62-2.89.82-5.92.81-8.88,0-2.42-1.86-4.03-3.98-4.11-2.18-.09-3.9,1.3-4.46,3.65-.13.53-.17,1.09-.27,1.63-.77,4.11-1.04,8.4-2.41,12.3-7.31,20.8-21.78,33.34-43.88,35.89-15.26,1.76-28.82-2.98-40.39-13.13-2.24-1.97-4.31-4.14-6.46-6.21-1.11-1.07-2.39-1.81-4-1.61-1.73.21-2.99,1.08-3.61,2.76-.67,1.83-.43,3.62.95,4.93,3.54,3.4,6.95,7.04,10.89,9.9,16.09,11.68,33.93,14.82,53.47,10.09M156.16,112.01c-1.05.27-2.1.54-3.15.82-.1.03-.19.11-.28.17-12.53,7.68-25.55,7.86-38.65,1.96-14.51-6.53-22.42-18.21-24.42-33.82-.53-4.12.02-8.38.15-12.57.08-2.42-1.11-4.32-3.2-4.76-2.4-.51-4.38.42-5.08,2.82-.57,1.94-.81,4-.92,6.03-.95,17.8,5.08,32.69,18.96,44.05,9.23,7.56,20.07,10.86,31.95,11.11,9.39.2,18-2.24,25.95-7.16,1.71-1.06,3.02-2.42,2.77-4.53-.26-2.18-1.65-3.55-4.08-4.11M169.04,53.38c-2.71-3.78-6.15-6.81-9.94-9.43-1.71-1.19-3.57-2.22-5.48-3.04-2.34-1-4.64-.1-5.7,1.91-1.17,2.22-.53,4.63,1.65,6.09.92.61,1.9,1.13,2.85,1.7,4.78,2.86,8.84,6.49,11.58,11.38,7.24,12.95,6.07,25.73-.97,38.35-.56,1.01-1.21,2-1.59,3.07-.8,2.25-.1,4.19,1.77,5.3,1.65.99,3.69.69,5.25-.99.96-1.04,1.79-2.25,2.47-3.5,9.43-17.22,9.44-34.12-1.89-50.83M149.11,29.02c.43,2.49,2.35,3.39,4.39,4.26,12.32,5.27,22.07,13.37,27.91,25.68,1.27,2.69,2.23,5.52,3.47,8.23,1.07,2.33,2.89,3.05,5.18,2.28,1.95-.65,3.13-2.7,2.75-4.91-.15-.87-.42-1.72-.68-2.56-3.47-11.26-10.2-20.28-19.29-27.57-5.36-4.3-11.22-7.86-17.87-9.87-3.11-.94-5.59.91-5.86,4.46M109.79,95.92c-.68.54-1.51.97-2.03,1.64-1.75,2.29-1.1,4.64,1.81,6.92,12.64,9.9,30.9,10.75,44.47,2.03.87-.56,1.69-1.28,2.33-2.09,1.38-1.72,1.27-4.21-.11-5.82-1.42-1.65-3.48-2.03-5.56-.92-.97.52-1.88,1.16-2.8,1.77-5.83,3.82-12.21,4.98-19.03,3.96-5.14-.77-9.69-2.92-13.84-5.99-1.48-1.09-3-2.13-5.25-1.51M97.4,85.69c1.33,2.63,3.23,3.66,5.57,3.02,2.1-.57,3.26-2.67,2.99-5.44-.03-.33-.05-.66-.1-.99-.66-4.56-.31-9.06,1.03-13.45,2.38-7.76,7.33-13.48,14.22-17.65,1.14-.69,2.26-1.64,2.96-2.74.92-1.43.34-3.61-.86-4.72-1.52-1.41-3.81-1.66-5.86-.49-16.23,9.21-22.86,26.02-19.97,42.47M92.11,56.47c.18-.28.37-.55.53-.84,4.95-9.09,12.08-15.95,21.22-20.75,1.66-.87,3.38-1.6,5.05-2.44,2.18-1.1,3-3.22,2.17-5.43-.78-2.09-2.8-3.09-5.12-2.5-.74.19-1.48.44-2.19.75-6.52,2.87-12.42,6.7-17.67,11.53-4.73,4.35-8.54,9.4-11.32,15.18-1.18,2.46-.5,4.57,1.45,5.84,1.9,1.23,3.78.85,5.86-1.35M126.75,25.33c.29,1.22.7,2.43.83,3.66.14,1.37,0,2.76.02,4.14.05,4.35,2.9,7.38,7.14,7.57,3.88.18,7.11-2.74,7.47-6.88.15-1.76.14-3.54.11-5.3-.04-2.72,1.14-4.77,3.26-6.36.38-.29.75-.58,1.31-1.01-8.17-2.89-16.1-2.62-24.03-.25,1.34,1.52,2.54,2.87,3.88,4.43M159.27,74.28c2.87-1.35,3.97-3.8,2.72-6.67-2.02-4.6-5.22-8.33-9.27-11.26-2.18-1.58-4.71-1.27-6.14.48-1.62,1.98-1.4,4.31.43,6.43,2.59,3,5.09,6.08,7.6,9.15,1.16,1.41,2.5,2.34,4.66,1.87M130.89,56.6c1.81,2.1,3.87,2.8,5.99,2.04,2.82-1.01,4.23-4.1,3.14-6.88-1.1-2.79-4.3-4.12-6.98-2.91-2.92,1.32-3.87,4.45-2.14,7.75Z"/>
  </g>
</svg>