<svg version="1.1" id="Layer_1" xmlns="http://www.w3.org/2000/svg" xmlns:xlink="http://www.w3.org/1999/xlink" x="0px" y="0px"
	 width="100%" viewBox="0 0 1792 1024" enable-background="new 0 0 1792 1024" xml:space="preserve">
<path fill="#FDFDFD" opacity="1.000000" stroke="none" 
	d="
M1032.000000,1025.000000 
	C688.000122,1025.000000 344.500244,1025.000000 1.000276,1025.000000 
	C1.000184,683.666931 1.000184,342.333832 1.000092,1.000551 
	C598.332886,1.000367 1195.665771,1.000367 1792.999023,1.000184 
	C1792.999268,342.332764 1792.999268,683.665527 1792.999634,1024.999146 
	C1539.500000,1025.000000 1286.000000,1025.000000 1032.000000,1025.000000 
M1144.625122,759.566650 
	C1146.629395,762.792175 1148.959961,765.862793 1150.577881,769.271667 
	C1155.777466,780.226746 1160.856323,791.245850 1165.623413,802.393494 
	C1166.505371,804.455750 1166.479370,807.570312 1165.567139,809.617432 
	C1162.115845,817.360962 1158.127441,824.865051 1153.880371,833.380188 
	C1160.259155,831.733643 1165.663086,830.693176 1170.782104,828.858093 
	C1173.114136,828.022034 1175.739624,826.025330 1176.775757,823.858704 
	C1187.088379,802.293823 1197.100830,780.585327 1207.173584,758.906067 
	C1207.547119,758.102051 1207.669189,757.181274 1207.945190,756.181396 
	C1203.260376,756.181396 1198.923218,756.367188 1194.610840,756.120361 
	C1191.389526,755.935913 1189.977417,757.254761 1188.822266,760.186462 
	C1185.011719,769.856201 1180.853027,779.388672 1176.585938,789.550720 
	C1172.230103,779.091492 1168.199707,769.276123 1164.014771,759.526978 
	C1163.450806,758.213257 1162.162720,756.313232 1161.118774,756.252686 
	C1155.522095,755.927490 1149.896606,756.099060 1143.852417,756.099060 
	C1144.255249,757.444580 1144.556152,758.028809 1144.568726,758.619202 
	C1144.579834,759.135071 1144.266479,759.657898 1143.351562,760.272400 
	C1134.806641,751.652527 1126.375488,754.097778 1118.025024,760.866150 
	C1117.784302,759.116943 1117.589355,757.700928 1117.409058,756.390625 
	C1112.320435,756.390625 1107.597290,756.390625 1102.694824,756.390625 
	C1102.694824,774.254272 1102.694824,791.770386 1102.694824,809.540405 
	C1108.002930,809.540405 1112.906250,809.540405 1118.658936,809.540405 
	C1118.658936,800.746704 1118.591309,792.145386 1118.676636,783.545532 
	C1118.776733,773.450439 1125.615967,768.883972 1134.787109,772.695496 
	C1136.916870,770.373657 1139.214966,768.179993 1141.116699,765.684448 
	C1142.370850,764.038696 1143.055054,761.958679 1144.625122,759.566650 
M464.112823,584.500000 
	C464.139069,607.663147 464.465912,630.831055 464.099426,653.987976 
	C463.788574,673.630432 478.738708,690.113098 500.108032,690.088501 
	C766.075256,689.782104 1032.042847,689.828674 1298.010376,689.765015 
	C1313.471436,689.761292 1325.319458,680.888611 1328.956055,665.826477 
	C1330.420044,659.762329 1330.635498,653.286682 1330.643311,646.997437 
	C1330.766479,548.509705 1330.775635,450.021820 1330.781372,351.533966 
	C1330.783447,315.538544 1330.699951,279.543121 1330.671143,243.547714 
	C1330.653809,221.854721 1317.704712,206.806534 1293.597778,206.850128 
	C1104.120972,207.192780 914.643311,207.029114 725.165894,207.027985 
	C649.174927,207.027527 573.183960,207.034409 497.193024,207.059769 
	C482.199005,207.064758 471.356445,214.012482 466.682800,227.412079 
	C464.969910,232.323090 464.222504,237.813766 464.216278,243.041428 
	C464.081085,356.527496 464.113068,470.013763 464.112823,584.500000 
M749.501038,804.153931 
	C758.615234,809.029724 767.413879,808.519592 776.105225,801.924988 
	C775.780334,807.133301 773.611694,810.681580 769.844299,812.794250 
	C761.192993,817.646057 753.215027,814.612671 745.445312,809.410828 
	C742.685120,813.259399 740.190002,816.738281 736.918884,821.299194 
	C743.365967,823.962097 749.053528,827.467957 755.186462,828.637207 
	C777.504272,832.891968 792.807068,819.909973 792.194763,799.378845 
	C791.837463,787.398987 792.177002,775.398376 792.200989,763.407104 
	C792.205872,760.996216 792.201660,758.585266 792.201660,756.444153 
	C786.751343,756.444153 781.993164,756.444153 777.131165,756.444153 
	C776.997559,758.208496 776.893799,759.578003 776.737549,761.641113 
	C770.579102,755.849915 763.957581,753.841309 756.482483,755.508789 
	C745.659119,757.923401 739.532593,765.445496 737.390076,775.669556 
	C734.969604,787.220032 738.636475,797.034729 749.501038,804.153931 
M1040.555298,767.124329 
	C1036.441650,773.988953 1034.918091,781.322388 1036.987915,789.138794 
	C1039.815674,799.817688 1046.529419,807.058533 1057.323486,809.554626 
	C1068.728271,812.192017 1078.875854,809.262573 1086.469116,800.023315 
	C1093.484863,791.486938 1095.067505,782.029785 1090.305054,771.662231 
	C1080.507812,750.334534 1052.593018,750.128418 1040.555298,767.124329 
M913.840820,778.010193 
	C913.583740,776.874390 913.385864,775.721252 913.060242,774.605408 
	C910.126648,764.553711 904.006592,757.532776 893.469727,755.502991 
	C882.916931,753.470215 873.619995,756.038696 866.641418,764.748230 
	C857.182251,776.553528 859.033325,794.904785 870.579529,804.295532 
	C882.504211,813.994141 900.201172,812.205750 910.533325,800.046509 
	C906.935303,797.137756 903.341797,794.232666 899.776245,791.350220 
	C890.864197,799.045471 878.820496,797.174683 876.804565,787.628784 
	C889.136597,787.628784 901.402832,787.628784 913.903870,787.628784 
	C913.903870,784.503540 913.903870,781.700317 913.840820,778.010193 
M964.627869,809.835876 
	C968.090881,809.835876 971.553833,809.835876 975.727539,809.835876 
	C975.727539,798.298645 975.965088,787.180115 975.651367,776.077087 
	C975.406250,767.400696 972.233093,759.824524 963.517944,756.576294 
	C954.734863,753.302734 946.236816,754.042786 939.136841,761.686584 
	C938.914307,759.721863 938.724182,758.043701 938.541443,756.430420 
	C933.675232,756.430420 929.243530,756.430420 924.444275,756.430420 
	C924.444275,774.241821 924.444275,791.772339 924.444275,809.400024 
	C929.690979,809.400024 934.605164,809.400024 939.941833,809.400024 
	C939.941833,799.970764 939.851440,790.838074 939.972351,781.708191 
	C940.058777,775.187561 944.847351,770.165405 950.667969,770.149292 
	C956.250000,770.133850 959.808960,774.445862 959.854370,781.514587 
	C959.906860,789.680115 959.960144,797.850098 959.735413,806.010559 
	C959.649902,809.116577 960.639282,810.330994 964.627869,809.835876 
M723.331116,809.732117 
	C725.090149,809.732117 726.849182,809.732117 728.813904,809.732117 
	C728.813904,798.173096 729.160034,787.351929 728.718384,776.562927 
	C728.259705,765.357971 722.082764,757.284119 713.004211,755.419922 
	C705.663574,753.912659 698.850220,755.309998 693.068665,761.396912 
	C692.858154,759.308044 692.716614,757.902954 692.564270,756.391235 
	C687.599670,756.391235 682.862671,756.391235 678.044312,756.391235 
	C678.044312,774.245667 678.044312,791.811523 678.044312,809.589844 
	C683.225708,809.589844 688.136536,809.589844 693.460510,809.589844 
	C693.544678,807.776489 693.674988,806.158997 693.685547,804.540710 
	C693.738647,796.385376 693.531677,788.220520 693.861938,780.077148 
	C694.152039,772.923950 700.246216,768.827881 706.740295,771.120789 
	C711.542786,772.816467 712.941284,776.840149 712.982788,781.440125 
	C713.066406,790.712769 713.007629,799.986755 713.007629,809.733154 
	C716.483398,809.733154 719.440063,809.733154 723.331116,809.732117 
M1012.145264,810.456055 
	C1018.463440,811.515869 1024.247925,810.155151 1029.462036,807.116882 
	C1028.507446,801.838867 1027.638428,797.034058 1026.751343,792.129272 
	C1025.747192,792.727295 1024.924927,793.301575 1024.033813,793.734375 
	C1016.565063,797.361877 1010.954102,794.304688 1010.502441,786.124695 
	C1010.212280,780.868103 1010.447937,775.582458 1010.447937,769.798462 
	C1016.334290,769.798462 1021.561340,769.798462 1026.755371,769.798462 
	C1026.755371,765.019043 1026.755371,760.769348 1026.755371,756.057922 
	C1021.401184,756.057922 1016.324463,756.057922 1010.743896,756.057922 
	C1010.743896,751.060364 1010.743896,746.525757 1010.743896,741.716675 
	C1005.277954,742.320312 1000.367615,742.862671 994.981812,743.457458 
	C994.981812,747.876953 994.981812,751.940979 994.981812,756.410278 
	C990.875183,756.410278 987.293030,756.410278 983.570312,756.410278 
	C983.570312,761.095215 983.570312,765.353333 983.570312,770.069458 
	C987.360596,770.069458 990.932129,770.069458 994.105164,770.069458 
	C994.596375,770.654541 994.793030,770.779297 994.794128,770.905762 
	C994.853027,777.562195 994.881348,784.218872 994.942505,790.875305 
	C995.037354,801.203552 1001.147095,808.435486 1012.145264,810.456055 
M851.943237,774.503235 
	C854.552429,768.490906 857.161560,762.478577 859.919312,756.123901 
	C855.460999,756.123901 851.609070,756.390869 847.811707,756.049805 
	C843.906067,755.699036 841.993835,756.885498 840.656555,760.832825 
	C837.276978,770.808899 833.258972,780.568726 829.150574,791.321350 
	C828.173523,789.035034 827.521912,787.600403 826.941589,786.137512 
	C823.390320,777.185974 819.940186,768.192383 816.221985,759.310913 
	C815.668396,757.988586 813.934143,756.371460 812.650146,756.282959 
	C807.583496,755.933838 802.478638,756.139709 796.837830,756.139709 
	C797.506042,757.736694 797.914185,758.791260 798.382141,759.818604 
	C804.231140,772.657593 810.170715,785.456055 815.919739,798.339600 
	C821.014648,809.757141 820.925415,809.610474 833.268921,809.822571 
	C837.019958,809.886963 838.428101,808.397339 839.642151,805.237549 
	C843.507568,795.177429 847.652161,785.224548 851.943237,774.503235 
M634.306641,755.088501 
	C627.531433,753.582520 622.305603,756.766785 617.312866,761.544556 
	C617.185547,759.251953 617.104980,757.802673 617.020752,756.286377 
	C611.906738,756.286377 606.972961,756.286377 601.698853,756.286377 
	C601.698853,774.253479 601.698853,791.963501 601.698853,809.591064 
	C607.023010,809.591064 611.955017,809.591064 617.294983,809.591064 
	C617.294983,800.644714 617.187805,792.002991 617.322815,783.364990 
	C617.483093,773.111511 625.212097,768.462585 634.048218,773.076355 
	C637.032349,769.509705 640.005066,765.956665 643.477966,761.805786 
	C640.707642,759.698059 637.853882,757.526855 634.306641,755.088501 
M649.710632,773.541443 
	C649.710632,785.574402 649.710632,797.607422 649.710632,809.519775 
	C655.312988,809.519775 660.058350,809.519775 664.856689,809.519775 
	C664.856689,791.569946 664.856689,773.903564 664.856689,756.340088 
	C659.636658,756.340088 654.759277,756.340088 649.680664,756.340088 
	C649.680664,761.961365 649.680664,767.260376 649.710632,773.541443 
M648.411377,746.896179 
	C652.420593,752.119141 657.469727,753.493896 662.084167,750.618835 
	C666.067566,748.136841 667.564087,743.097778 665.563293,738.903625 
	C663.458801,734.492126 658.312561,732.263611 653.999512,733.896057 
	C648.775879,735.873230 646.542542,740.513977 648.411377,746.896179 
z"/>
<path fill="#010101" opacity="1.000000" stroke="none" 
	d="
M464.112823,584.000000 
	C464.113068,470.013763 464.081085,356.527496 464.216278,243.041428 
	C464.222504,237.813766 464.969910,232.323090 466.682800,227.412079 
	C471.356445,214.012482 482.199005,207.064758 497.193024,207.059769 
	C573.183960,207.034409 649.174927,207.027527 725.165894,207.027985 
	C914.643311,207.029114 1104.120972,207.192780 1293.597778,206.850128 
	C1317.704712,206.806534 1330.653809,221.854721 1330.671143,243.547714 
	C1330.699951,279.543121 1330.783447,315.538544 1330.781372,351.533966 
	C1330.775635,450.021820 1330.766479,548.509705 1330.643311,646.997437 
	C1330.635498,653.286682 1330.420044,659.762329 1328.956055,665.826477 
	C1325.319458,680.888611 1313.471436,689.761292 1298.010376,689.765015 
	C1032.042847,689.828674 766.075256,689.782104 500.108032,690.088501 
	C478.738708,690.113098 463.788574,673.630432 464.099426,653.987976 
	C464.465912,630.831055 464.139069,607.663147 464.112823,584.000000 
M916.334839,629.838196 
	C934.624390,624.994568 951.755981,617.426880 967.456177,606.941650 
	C1010.431641,578.240845 1036.164551,537.840088 1046.869141,487.678040 
	C1048.726440,478.974274 1049.337769,469.862061 1049.307495,460.942627 
	C1049.282837,453.658752 1043.707520,448.820984 1037.321045,448.569855 
	C1030.751099,448.311554 1025.589355,452.497498 1023.881042,459.553467 
	C1023.491577,461.161926 1023.362610,462.831604 1023.056335,464.462311 
	C1020.731567,476.839294 1019.929077,489.753571 1015.801758,501.498657 
	C993.794067,564.124878 950.239990,601.872498 883.698120,609.553162 
	C837.749573,614.856812 796.949585,600.574890 762.094604,570.034363 
	C755.338440,564.114502 749.126221,557.575012 742.636719,551.348877 
	C739.281433,548.129700 735.446777,545.902283 730.590149,546.492798 
	C725.390930,547.125061 721.585388,549.734436 719.735107,554.804749 
	C717.723022,560.318298 718.454041,565.688049 722.581726,569.644348 
	C733.251831,579.871399 743.491089,590.825928 755.379211,599.455444 
	C803.812683,634.612854 857.518188,644.067444 916.334839,629.838196 
M934.185791,544.051880 
	C931.023865,544.867249 927.859985,545.675110 924.703247,546.510010 
	C924.394714,546.591675 924.129150,546.838196 923.845825,547.011780 
	C886.138794,570.119873 846.927856,570.677246 807.496826,552.925537 
	C763.827637,533.265869 740.016357,498.103760 733.997620,451.120605 
	C732.409973,438.727264 734.049927,425.899139 734.463013,413.279022 
	C734.701843,405.981842 731.115967,400.277802 724.832886,398.937134 
	C717.608521,397.395569 711.650818,400.208252 709.544861,407.414001 
	C707.842346,413.239380 707.104248,419.463745 706.778625,425.556061 
	C703.914856,479.140472 722.085388,523.953918 763.855713,558.158325 
	C791.655029,580.922363 824.270752,590.856140 860.023682,591.604187 
	C888.296143,592.195679 914.196350,584.863770 938.141418,570.052551 
	C943.284729,566.871216 947.220764,562.757324 946.473389,556.416565 
	C945.700684,549.860840 941.495850,545.732544 934.185791,544.051880 
M972.958435,367.539246 
	C964.799805,356.158661 954.438477,347.035828 943.030762,339.136871 
	C937.878601,335.569427 932.294495,332.441742 926.536255,329.980560 
	C919.502563,326.974213 912.555481,329.676025 909.381836,335.716980 
	C905.873352,342.395325 907.782776,349.657349 914.349121,354.040497 
	C917.111084,355.884125 920.067017,357.435730 922.920288,359.144318 
	C937.300781,367.755646 949.541992,378.669983 957.778564,393.406067 
	C979.571289,432.395721 976.050598,470.873932 954.864746,508.850769 
	C953.171753,511.885468 951.229370,514.858398 950.073181,518.099182 
	C947.653625,524.881409 949.783691,530.700928 955.404297,534.067566 
	C960.362183,537.037231 966.519226,536.154175 971.218567,531.090271 
	C974.121521,527.962219 976.599976,524.303650 978.657349,520.548157 
	C1007.051697,468.719177 1007.069031,417.820709 972.958435,367.539246 
M912.982910,294.208771 
	C914.283203,301.698853 920.042419,304.406738 926.209778,307.044830 
	C963.294128,322.907501 992.645325,347.300354 1010.223877,384.339203 
	C1014.061707,392.425659 1016.927551,400.970123 1020.674988,409.103699 
	C1023.908447,416.121735 1029.389526,418.272003 1036.256348,415.976959 
	C1042.136353,414.011719 1045.670898,407.845428 1044.526733,401.190796 
	C1044.077759,398.579529 1043.273926,396.017883 1042.490479,393.477234 
	C1032.039307,359.587921 1011.789001,332.421692 984.421082,310.486389 
	C968.274170,297.544678 950.633423,286.827423 930.612122,280.775452 
	C921.253052,277.946381 913.799072,283.521820 912.982910,294.208771 
M794.589539,495.611267 
	C792.530090,497.239960 790.035706,498.536224 788.490295,500.557831 
	C783.212463,507.462067 785.186768,514.527405 793.950195,521.394592 
	C831.989014,551.202637 886.973267,553.751099 927.807068,527.492798 
	C930.421753,525.811401 932.881165,523.634155 934.824097,521.214783 
	C938.980713,516.038757 938.660034,508.544708 934.506042,503.694000 
	C930.241516,498.714172 924.021606,497.596619 917.782288,500.934570 
	C914.858032,502.498993 912.130066,504.437622 909.348145,506.260162 
	C891.812378,517.748596 872.606506,521.240112 852.059204,518.176697 
	C836.578674,515.868591 822.889221,509.383087 810.382568,500.149323 
	C805.922363,496.856323 801.337158,493.749359 794.589539,495.611267 
M757.295715,464.804352 
	C761.312683,472.710815 767.021667,475.809509 774.069641,473.908783 
	C780.387451,472.204956 783.881287,465.857300 783.082642,457.531433 
	C782.987183,456.536713 782.923523,455.537048 782.780457,454.549042 
	C780.791260,440.815033 781.834900,427.260620 785.895508,414.048737 
	C793.072815,390.695923 807.958313,373.478058 828.698975,360.916534 
	C832.120911,358.844055 835.498779,355.975983 837.620361,352.658997 
	C840.383301,348.339203 838.641174,341.801758 835.033142,338.439667 
	C830.469421,334.187042 823.567200,333.451477 817.400208,336.949646 
	C768.529297,364.671082 748.575500,415.272095 757.295715,464.804352 
M741.376831,376.844025 
	C741.911133,376.004242 742.497131,375.192596 742.972229,374.320557 
	C757.877258,346.962799 779.343384,326.303467 806.860779,311.866882 
	C811.843872,309.252563 817.046753,307.060150 822.071350,304.520996 
	C828.622375,301.210480 831.112427,294.832916 828.618408,288.188385 
	C826.261658,281.909668 820.175476,278.884674 813.213013,280.662140 
	C810.972534,281.234131 808.745972,281.974701 806.630676,282.905487 
	C786.994446,291.545715 769.239929,303.085480 753.445496,317.619812 
	C739.216553,330.713501 727.723206,345.912048 719.361633,363.316467 
	C715.804749,370.720154 717.849365,377.087402 723.726013,380.907684 
	C729.440918,384.622803 735.119507,383.478271 741.376831,376.844025 
M845.663086,283.102966 
	C846.529907,286.774292 847.773865,290.406189 848.162659,294.127472 
	C848.592773,298.244141 848.192078,302.443146 848.237183,306.605377 
	C848.379211,319.714050 856.977905,328.809601 869.740417,329.401459 
	C881.429871,329.943542 891.153564,321.142548 892.242493,308.678925 
	C892.704895,303.386292 892.659241,298.033875 892.577942,292.712677 
	C892.452881,284.529755 896.005432,278.348846 902.395752,273.561676 
	C903.544434,272.701172 904.666992,271.805878 906.328430,270.518311 
	C881.718750,261.828644 857.858826,262.645935 833.978943,269.766785 
	C838.027710,274.342499 841.628296,278.411713 845.663086,283.102966 
M943.558472,430.448486 
	C952.199707,426.371826 955.519775,419.009796 951.735107,410.375916 
	C945.660828,396.518433 936.026123,385.311127 923.836243,376.471832 
	C917.276245,371.714935 909.667480,372.659271 905.365723,377.909729 
	C900.480286,383.872559 901.153381,390.894867 906.651733,397.275848 
	C914.440918,406.315308 921.968628,415.581543 929.537292,424.808868 
	C933.018005,429.052368 937.052246,431.842316 943.558472,430.448486 
M858.136658,377.227661 
	C863.577454,383.544525 869.771973,385.648743 876.171753,383.354004 
	C884.663269,380.309265 888.908997,370.999939 885.614624,362.648743 
	C882.304565,354.257416 872.666077,350.248016 864.591125,353.903320 
	C855.792542,357.886200 852.954346,367.312317 858.136658,377.227661 
z"/>
<path fill="#040404" opacity="1.000000" stroke="none" 
	d="
M749.170898,803.987000 
	C738.636475,797.034729 734.969604,787.220032 737.390076,775.669556 
	C739.532593,765.445496 745.659119,757.923401 756.482483,755.508789 
	C763.957581,753.841309 770.579102,755.849915 776.737549,761.641113 
	C776.893799,759.578003 776.997559,758.208496 777.131165,756.444153 
	C781.993164,756.444153 786.751343,756.444153 792.201660,756.444153 
	C792.201660,758.585266 792.205872,760.996216 792.200989,763.407104 
	C792.177002,775.398376 791.837463,787.398987 792.194763,799.378845 
	C792.807068,819.909973 777.504272,832.891968 755.186462,828.637207 
	C749.053528,827.467957 743.365967,823.962097 736.918884,821.299194 
	C740.190002,816.738281 742.685120,813.259399 745.445312,809.410828 
	C753.215027,814.612671 761.192993,817.646057 769.844299,812.794250 
	C773.611694,810.681580 775.780334,807.133301 776.105225,801.924988 
	C767.413879,808.519592 758.615234,809.029724 749.170898,803.987000 
M753.075073,783.966003 
	C755.343567,790.283936 759.081482,793.261414 764.514038,793.077820 
	C769.427734,792.911743 773.863708,789.482971 775.092896,784.742554 
	C776.387878,779.748230 774.897888,775.497192 771.027039,772.241455 
	C767.546631,769.313965 763.534668,768.933044 759.401611,770.864685 
	C754.166199,773.311340 752.474121,777.659546 753.075073,783.966003 
z"/>
<path fill="#060606" opacity="1.000000" stroke="none" 
	d="
M1144.096558,760.177673 
	C1144.266479,759.657898 1144.579834,759.135071 1144.568726,758.619202 
	C1144.556152,758.028809 1144.255249,757.444580 1143.852417,756.099060 
	C1149.896606,756.099060 1155.522095,755.927490 1161.118774,756.252686 
	C1162.162720,756.313232 1163.450806,758.213257 1164.014771,759.526978 
	C1168.199707,769.276123 1172.230103,779.091492 1176.585938,789.550720 
	C1180.853027,779.388672 1185.011719,769.856201 1188.822266,760.186462 
	C1189.977417,757.254761 1191.389526,755.935913 1194.610840,756.120361 
	C1198.923218,756.367188 1203.260376,756.181396 1207.945190,756.181396 
	C1207.669189,757.181274 1207.547119,758.102051 1207.173584,758.906067 
	C1197.100830,780.585327 1187.088379,802.293823 1176.775757,823.858704 
	C1175.739624,826.025330 1173.114136,828.022034 1170.782104,828.858093 
	C1165.663086,830.693176 1160.259155,831.733643 1153.880371,833.380188 
	C1158.127441,824.865051 1162.115845,817.360962 1165.567139,809.617432 
	C1166.479370,807.570312 1166.505371,804.455750 1165.623413,802.393494 
	C1160.856323,791.245850 1155.777466,780.226746 1150.577881,769.271667 
	C1148.959961,765.862793 1146.629395,762.792175 1144.324707,759.856323 
	C1144.024414,760.145996 1144.096558,760.177673 1144.096558,760.177673 
z"/>
<path fill="#040404" opacity="1.000000" stroke="none" 
	d="
M1040.750122,766.818115 
	C1052.593018,750.128418 1080.507812,750.334534 1090.305054,771.662231 
	C1095.067505,782.029785 1093.484863,791.486938 1086.469116,800.023315 
	C1078.875854,809.262573 1068.728271,812.192017 1057.323486,809.554626 
	C1046.529419,807.058533 1039.815674,799.817688 1036.987915,789.138794 
	C1034.918091,781.322388 1036.441650,773.988953 1040.750122,766.818115 
M1055.690063,791.822693 
	C1056.955688,792.594055 1058.141235,793.572327 1059.501587,794.099243 
	C1064.234253,795.932312 1068.715454,795.217163 1072.478027,791.852478 
	C1075.699341,788.971802 1077.677124,785.344421 1076.568115,780.797119 
	C1075.196655,775.173218 1071.759888,771.378967 1066.032471,770.105652 
	C1061.196533,769.030396 1056.373535,771.500732 1053.435669,776.182800 
	C1050.501099,780.859619 1051.057495,785.776917 1055.690063,791.822693 
z"/>
<path fill="#060606" opacity="1.000000" stroke="none" 
	d="
M913.872314,778.453613 
	C913.903870,781.700317 913.903870,784.503540 913.903870,787.628784 
	C901.402832,787.628784 889.136597,787.628784 876.804565,787.628784 
	C878.820496,797.174683 890.864197,799.045471 899.776245,791.350220 
	C903.341797,794.232666 906.935303,797.137756 910.533325,800.046509 
	C900.201172,812.205750 882.504211,813.994141 870.579529,804.295532 
	C859.033325,794.904785 857.182251,776.553528 866.641418,764.748230 
	C873.619995,756.038696 882.916931,753.470215 893.469727,755.502991 
	C904.006592,757.532776 910.126648,764.553711 913.060242,774.605408 
	C913.385864,775.721252 913.583740,776.874390 913.872314,778.453613 
M878.850220,777.939880 
	C885.217834,777.939880 891.585510,777.939880 898.078918,777.939880 
	C896.647278,771.978882 893.148560,768.979004 888.048950,768.867554 
	C883.377686,768.765564 877.980408,772.323669 876.827515,776.405823 
	C876.721863,776.779724 877.544556,777.415833 878.850220,777.939880 
z"/>
<path fill="#070707" opacity="1.000000" stroke="none" 
	d="
M964.152527,809.835876 
	C960.639282,810.330994 959.649902,809.116577 959.735413,806.010559 
	C959.960144,797.850098 959.906860,789.680115 959.854370,781.514587 
	C959.808960,774.445862 956.250000,770.133850 950.667969,770.149292 
	C944.847351,770.165405 940.058777,775.187561 939.972351,781.708191 
	C939.851440,790.838074 939.941833,799.970764 939.941833,809.400024 
	C934.605164,809.400024 929.690979,809.400024 924.444275,809.400024 
	C924.444275,791.772339 924.444275,774.241821 924.444275,756.430420 
	C929.243530,756.430420 933.675232,756.430420 938.541443,756.430420 
	C938.724182,758.043701 938.914307,759.721863 939.136841,761.686584 
	C946.236816,754.042786 954.734863,753.302734 963.517944,756.576294 
	C972.233093,759.824524 975.406250,767.400696 975.651367,776.077087 
	C975.965088,787.180115 975.727539,798.298645 975.727539,809.835876 
	C971.553833,809.835876 968.090881,809.835876 964.152527,809.835876 
z"/>
<path fill="#060606" opacity="1.000000" stroke="none" 
	d="
M722.863892,809.732666 
	C719.440063,809.733154 716.483398,809.733154 713.007629,809.733154 
	C713.007629,799.986755 713.066406,790.712769 712.982788,781.440125 
	C712.941284,776.840149 711.542786,772.816467 706.740295,771.120789 
	C700.246216,768.827881 694.152039,772.923950 693.861938,780.077148 
	C693.531677,788.220520 693.738647,796.385376 693.685547,804.540710 
	C693.674988,806.158997 693.544678,807.776489 693.460510,809.589844 
	C688.136536,809.589844 683.225708,809.589844 678.044312,809.589844 
	C678.044312,791.811523 678.044312,774.245667 678.044312,756.391235 
	C682.862671,756.391235 687.599670,756.391235 692.564270,756.391235 
	C692.716614,757.902954 692.858154,759.308044 693.068665,761.396912 
	C698.850220,755.309998 705.663574,753.912659 713.004211,755.419922 
	C722.082764,757.284119 728.259705,765.357971 728.718384,776.562927 
	C729.160034,787.351929 728.813904,798.173096 728.813904,809.732117 
	C726.849182,809.732117 725.090149,809.732117 722.863892,809.732666 
z"/>
<path fill="#060606" opacity="1.000000" stroke="none" 
	d="
M1011.730530,810.372192 
	C1001.147095,808.435486 995.037354,801.203552 994.942505,790.875305 
	C994.881348,784.218872 994.853027,777.562195 994.794128,770.905762 
	C994.793030,770.779297 994.596375,770.654541 994.105164,770.069458 
	C990.932129,770.069458 987.360596,770.069458 983.570312,770.069458 
	C983.570312,765.353333 983.570312,761.095215 983.570312,756.410278 
	C987.293030,756.410278 990.875183,756.410278 994.981812,756.410278 
	C994.981812,751.940979 994.981812,747.876953 994.981812,743.457458 
	C1000.367615,742.862671 1005.277954,742.320312 1010.743896,741.716675 
	C1010.743896,746.525757 1010.743896,751.060364 1010.743896,756.057922 
	C1016.324463,756.057922 1021.401184,756.057922 1026.755371,756.057922 
	C1026.755371,760.769348 1026.755371,765.019043 1026.755371,769.798462 
	C1021.561340,769.798462 1016.334290,769.798462 1010.447937,769.798462 
	C1010.447937,775.582458 1010.212280,780.868103 1010.502441,786.124695 
	C1010.954102,794.304688 1016.565063,797.361877 1024.033813,793.734375 
	C1024.924927,793.301575 1025.747192,792.727295 1026.751343,792.129272 
	C1027.638428,797.034058 1028.507446,801.838867 1029.462036,807.116882 
	C1024.247925,810.155151 1018.463440,811.515869 1011.730530,810.372192 
z"/>
<path fill="#060606" opacity="1.000000" stroke="none" 
	d="
M851.816040,774.866699 
	C847.652161,785.224548 843.507568,795.177429 839.642151,805.237549 
	C838.428101,808.397339 837.019958,809.886963 833.268921,809.822571 
	C820.925415,809.610474 821.014648,809.757141 815.919739,798.339600 
	C810.170715,785.456055 804.231140,772.657593 798.382141,759.818604 
	C797.914185,758.791260 797.506042,757.736694 796.837830,756.139709 
	C802.478638,756.139709 807.583496,755.933838 812.650146,756.282959 
	C813.934143,756.371460 815.668396,757.988586 816.221985,759.310913 
	C819.940186,768.192383 823.390320,777.185974 826.941589,786.137512 
	C827.521912,787.600403 828.173523,789.035034 829.150574,791.321350 
	C833.258972,780.568726 837.276978,770.808899 840.656555,760.832825 
	C841.993835,756.885498 843.906067,755.699036 847.811707,756.049805 
	C851.609070,756.390869 855.460999,756.123901 859.919312,756.123901 
	C857.161560,762.478577 854.552429,768.490906 851.816040,774.866699 
z"/>
<path fill="#0A0A0A" opacity="1.000000" stroke="none" 
	d="
M1144.009521,760.109558 
	C1143.055054,761.958679 1142.370850,764.038696 1141.116699,765.684448 
	C1139.214966,768.179993 1136.916870,770.373657 1134.783447,772.692139 
	C1125.615967,768.883972 1118.776733,773.450439 1118.676636,783.545532 
	C1118.591309,792.145386 1118.658936,800.746704 1118.658936,809.540405 
	C1112.906250,809.540405 1108.002930,809.540405 1102.694824,809.540405 
	C1102.694824,791.770386 1102.694824,774.254272 1102.694824,756.390625 
	C1107.597290,756.390625 1112.320435,756.390625 1117.409058,756.390625 
	C1117.589355,757.700928 1117.784302,759.116943 1118.025024,760.866150 
	C1126.375488,754.097778 1134.806641,751.652527 1143.724121,760.225037 
	C1144.096558,760.177673 1144.024414,760.145996 1144.009521,760.109558 
z"/>
<path fill="#080808" opacity="1.000000" stroke="none" 
	d="
M634.653442,755.222107 
	C637.853882,757.526855 640.707642,759.698059 643.477966,761.805786 
	C640.005066,765.956665 637.032349,769.509705 634.048218,773.076355 
	C625.212097,768.462585 617.483093,773.111511 617.322815,783.364990 
	C617.187805,792.002991 617.294983,800.644714 617.294983,809.591064 
	C611.955017,809.591064 607.023010,809.591064 601.698853,809.591064 
	C601.698853,791.963501 601.698853,774.253479 601.698853,756.286377 
	C606.972961,756.286377 611.906738,756.286377 617.020752,756.286377 
	C617.104980,757.802673 617.185547,759.251953 617.312866,761.544556 
	C622.305603,756.766785 627.531433,753.582520 634.653442,755.222107 
z"/>
<path fill="#020202" opacity="1.000000" stroke="none" 
	d="
M649.695679,773.050415 
	C649.680664,767.260376 649.680664,761.961365 649.680664,756.340088 
	C654.759277,756.340088 659.636658,756.340088 664.856689,756.340088 
	C664.856689,773.903564 664.856689,791.569946 664.856689,809.519775 
	C660.058350,809.519775 655.312988,809.519775 649.710632,809.519775 
	C649.710632,797.607422 649.710632,785.574402 649.695679,773.050415 
z"/>
<path fill="#080808" opacity="1.000000" stroke="none" 
	d="
M648.242004,746.554077 
	C646.542542,740.513977 648.775879,735.873230 653.999512,733.896057 
	C658.312561,732.263611 663.458801,734.492126 665.563293,738.903625 
	C667.564087,743.097778 666.067566,748.136841 662.084167,750.618835 
	C657.469727,753.493896 652.420593,752.119141 648.242004,746.554077 
z"/>
<path fill="#FCFCFC" opacity="1.000000" stroke="none" 
	d="
M915.930603,629.909180 
	C857.518188,644.067444 803.812683,634.612854 755.379211,599.455444 
	C743.491089,590.825928 733.251831,579.871399 722.581726,569.644348 
	C718.454041,565.688049 717.723022,560.318298 719.735107,554.804749 
	C721.585388,549.734436 725.390930,547.125061 730.590149,546.492798 
	C735.446777,545.902283 739.281433,548.129700 742.636719,551.348877 
	C749.126221,557.575012 755.338440,564.114502 762.094604,570.034363 
	C796.949585,600.574890 837.749573,614.856812 883.698120,609.553162 
	C950.239990,601.872498 993.794067,564.124878 1015.801758,501.498657 
	C1019.929077,489.753571 1020.731567,476.839294 1023.056335,464.462311 
	C1023.362610,462.831604 1023.491577,461.161926 1023.881042,459.553467 
	C1025.589355,452.497498 1030.751099,448.311554 1037.321045,448.569855 
	C1043.707520,448.820984 1049.282837,453.658752 1049.307495,460.942627 
	C1049.337769,469.862061 1048.726440,478.974274 1046.869141,487.678040 
	C1036.164551,537.840088 1010.431641,578.240845 967.456177,606.941650 
	C951.755981,617.426880 934.624390,624.994568 915.930603,629.909180 
z"/>
<path fill="#FCFCFC" opacity="1.000000" stroke="none" 
	d="
M934.592773,544.088440 
	C941.495850,545.732544 945.700684,549.860840 946.473389,556.416565 
	C947.220764,562.757324 943.284729,566.871216 938.141418,570.052551 
	C914.196350,584.863770 888.296143,592.195679 860.023682,591.604187 
	C824.270752,590.856140 791.655029,580.922363 763.855713,558.158325 
	C722.085388,523.953918 703.914856,479.140472 706.778625,425.556061 
	C707.104248,419.463745 707.842346,413.239380 709.544861,407.414001 
	C711.650818,400.208252 717.608521,397.395569 724.832886,398.937134 
	C731.115967,400.277802 734.701843,405.981842 734.463013,413.279022 
	C734.049927,425.899139 732.409973,438.727264 733.997620,451.120605 
	C740.016357,498.103760 763.827637,533.265869 807.496826,552.925537 
	C846.927856,570.677246 886.138794,570.119873 923.845825,547.011780 
	C924.129150,546.838196 924.394714,546.591675 924.703247,546.510010 
	C927.859985,545.675110 931.023865,544.867249 934.592773,544.088440 
z"/>
<path fill="#FCFCFC" opacity="1.000000" stroke="none" 
	d="
M973.168884,367.827759 
	C1007.069031,417.820709 1007.051697,468.719177 978.657349,520.548157 
	C976.599976,524.303650 974.121521,527.962219 971.218567,531.090271 
	C966.519226,536.154175 960.362183,537.037231 955.404297,534.067566 
	C949.783691,530.700928 947.653625,524.881409 950.073181,518.099182 
	C951.229370,514.858398 953.171753,511.885468 954.864746,508.850769 
	C976.050598,470.873932 979.571289,432.395721 957.778564,393.406067 
	C949.541992,378.669983 937.300781,367.755646 922.920288,359.144318 
	C920.067017,357.435730 917.111084,355.884125 914.349121,354.040497 
	C907.782776,349.657349 905.873352,342.395325 909.381836,335.716980 
	C912.555481,329.676025 919.502563,326.974213 926.536255,329.980560 
	C932.294495,332.441742 937.878601,335.569427 943.030762,339.136871 
	C954.438477,347.035828 964.799805,356.158661 973.168884,367.827759 
z"/>
<path fill="#FCFCFC" opacity="1.000000" stroke="none" 
	d="
M912.961975,293.798523 
	C913.799072,283.521820 921.253052,277.946381 930.612122,280.775452 
	C950.633423,286.827423 968.274170,297.544678 984.421082,310.486389 
	C1011.789001,332.421692 1032.039307,359.587921 1042.490479,393.477234 
	C1043.273926,396.017883 1044.077759,398.579529 1044.526733,401.190796 
	C1045.670898,407.845428 1042.136353,414.011719 1036.256348,415.976959 
	C1029.389526,418.272003 1023.908447,416.121735 1020.674988,409.103699 
	C1016.927551,400.970123 1014.061707,392.425659 1010.223877,384.339203 
	C992.645325,347.300354 963.294128,322.907501 926.209778,307.044830 
	C920.042419,304.406738 914.283203,301.698853 912.961975,293.798523 
z"/>
<path fill="#FCFCFC" opacity="1.000000" stroke="none" 
	d="
M794.940491,495.410919 
	C801.337158,493.749359 805.922363,496.856323 810.382568,500.149323 
	C822.889221,509.383087 836.578674,515.868591 852.059204,518.176697 
	C872.606506,521.240112 891.812378,517.748596 909.348145,506.260162 
	C912.130066,504.437622 914.858032,502.498993 917.782288,500.934570 
	C924.021606,497.596619 930.241516,498.714172 934.506042,503.694000 
	C938.660034,508.544708 938.980713,516.038757 934.824097,521.214783 
	C932.881165,523.634155 930.421753,525.811401 927.807068,527.492798 
	C886.973267,553.751099 831.989014,551.202637 793.950195,521.394592 
	C785.186768,514.527405 783.212463,507.462067 788.490295,500.557831 
	C790.035706,498.536224 792.530090,497.239960 794.940491,495.410919 
z"/>
<path fill="#FCFCFC" opacity="1.000000" stroke="none" 
	d="
M757.177246,464.422607 
	C748.575500,415.272095 768.529297,364.671082 817.400208,336.949646 
	C823.567200,333.451477 830.469421,334.187042 835.033142,338.439667 
	C838.641174,341.801758 840.383301,348.339203 837.620361,352.658997 
	C835.498779,355.975983 832.120911,358.844055 828.698975,360.916534 
	C807.958313,373.478058 793.072815,390.695923 785.895508,414.048737 
	C781.834900,427.260620 780.791260,440.815033 782.780457,454.549042 
	C782.923523,455.537048 782.987183,456.536713 783.082642,457.531433 
	C783.881287,465.857300 780.387451,472.204956 774.069641,473.908783 
	C767.021667,475.809509 761.312683,472.710815 757.177246,464.422607 
z"/>
<path fill="#FBFCFC" opacity="1.000000" stroke="none" 
	d="
M741.165710,377.139648 
	C735.119507,383.478271 729.440918,384.622803 723.726013,380.907684 
	C717.849365,377.087402 715.804749,370.720154 719.361633,363.316467 
	C727.723206,345.912048 739.216553,330.713501 753.445496,317.619812 
	C769.239929,303.085480 786.994446,291.545715 806.630676,282.905487 
	C808.745972,281.974701 810.972534,281.234131 813.213013,280.662140 
	C820.175476,278.884674 826.261658,281.909668 828.618408,288.188385 
	C831.112427,294.832916 828.622375,301.210480 822.071350,304.520996 
	C817.046753,307.060150 811.843872,309.252563 806.860779,311.866882 
	C779.343384,326.303467 757.877258,346.962799 742.972229,374.320557 
	C742.497131,375.192596 741.911133,376.004242 741.165710,377.139648 
z"/>
<path fill="#FCFCFC" opacity="1.000000" stroke="none" 
	d="
M845.446045,282.791962 
	C841.628296,278.411713 838.027710,274.342499 833.978943,269.766785 
	C857.858826,262.645935 881.718750,261.828644 906.328430,270.518311 
	C904.666992,271.805878 903.544434,272.701172 902.395752,273.561676 
	C896.005432,278.348846 892.452881,284.529755 892.577942,292.712677 
	C892.659241,298.033875 892.704895,303.386292 892.242493,308.678925 
	C891.153564,321.142548 881.429871,329.943542 869.740417,329.401459 
	C856.977905,328.809601 848.379211,319.714050 848.237183,306.605377 
	C848.192078,302.443146 848.592773,298.244141 848.162659,294.127472 
	C847.773865,290.406189 846.529907,286.774292 845.446045,282.791962 
z"/>
<path fill="#FCFCFC" opacity="1.000000" stroke="none" 
	d="
M943.208618,430.638550 
	C937.052246,431.842316 933.018005,429.052368 929.537292,424.808868 
	C921.968628,415.581543 914.440918,406.315308 906.651733,397.275848 
	C901.153381,390.894867 900.480286,383.872559 905.365723,377.909729 
	C909.667480,372.659271 917.276245,371.714935 923.836243,376.471832 
	C936.026123,385.311127 945.660828,396.518433 951.735107,410.375916 
	C955.519775,419.009796 952.199707,426.371826 943.208618,430.638550 
z"/>
<path fill="#FBFCFC" opacity="1.000000" stroke="none" 
	d="
M857.949585,376.905090 
	C852.954346,367.312317 855.792542,357.886200 864.591125,353.903320 
	C872.666077,350.248016 882.304565,354.257416 885.614624,362.648743 
	C888.908997,370.999939 884.663269,380.309265 876.171753,383.354004 
	C869.771973,385.648743 863.577454,383.544525 857.949585,376.905090 
z"/>
<path fill="#FAFAFA" opacity="1.000000" stroke="none" 
	d="
M753.037354,783.552185 
	C752.474121,777.659546 754.166199,773.311340 759.401611,770.864685 
	C763.534668,768.933044 767.546631,769.313965 771.027039,772.241455 
	C774.897888,775.497192 776.387878,779.748230 775.092896,784.742554 
	C773.863708,789.482971 769.427734,792.911743 764.514038,793.077820 
	C759.081482,793.261414 755.343567,790.283936 753.037354,783.552185 
z"/>
<path fill="#FAFAFA" opacity="1.000000" stroke="none" 
	d="
M1055.417603,791.555542 
	C1051.057495,785.776917 1050.501099,780.859619 1053.435669,776.182800 
	C1056.373535,771.500732 1061.196533,769.030396 1066.032471,770.105652 
	C1071.759888,771.378967 1075.196655,775.173218 1076.568115,780.797119 
	C1077.677124,785.344421 1075.699341,788.971802 1072.478027,791.852478 
	C1068.715454,795.217163 1064.234253,795.932312 1059.501587,794.099243 
	C1058.141235,793.572327 1056.955688,792.594055 1055.417603,791.555542 
z"/>
<path fill="#F3F3F1" opacity="1.000000" stroke="none" 
	d="
M878.393188,777.935059 
	C877.544556,777.415833 876.721863,776.779724 876.827515,776.405823 
	C877.980408,772.323669 883.377686,768.765564 888.048950,768.867554 
	C893.148560,768.979004 896.647278,771.978882 898.078918,777.939880 
	C891.585510,777.939880 885.217834,777.939880 878.393188,777.935059 
z"/>
</svg>